<svg xmlns="http://www.w3.org/2000/svg" xmlns:xlink="http://www.w3.org/1999/xlink" id="Layer_1" viewBox="0 0 511.999 511.999" xml:space="preserve"><g>	<rect x="61.793" y="92.689" style="fill:#74798D;" width="44.138" height="17.655"></rect>	<rect x="105.931" y="48.551" style="fill:#74798D;" width="17.655" height="44.138"></rect>	<rect x="406.068" y="92.689" style="fill:#74798D;" width="44.138" height="17.655"></rect>	<rect x="61.793" y="339.862" style="fill:#74798D;" width="44.138" height="17.655"></rect>	<rect x="406.068" y="339.862" style="fill:#74798D;" width="44.138" height="17.655"></rect></g><g>	<path style="fill:#464655;" d="M61.793,481.103c-2.259,0-4.518-0.862-6.241-2.586l-26.483-26.483  c-3.448-3.448-3.448-9.035,0-12.483s9.035-3.448,12.483,0l20.241,20.242l20.242-20.242c3.448-3.448,9.035-3.448,12.483,0  c3.448,3.448,3.448,9.035,0,12.483l-26.483,26.483C66.31,480.241,64.051,481.103,61.793,481.103z"></path>	<path style="fill:#464655;" d="M450.206,481.103c-2.259,0-4.517-0.862-6.241-2.586l-26.483-26.483  c-3.448-3.448-3.448-9.035,0-12.483s9.035-3.448,12.483,0l20.241,20.242l20.242-20.242c3.448-3.448,9.035-3.448,12.483,0  s3.448,9.035,0,12.483l-26.483,26.483C454.724,480.241,452.465,481.103,450.206,481.103z"></path></g><path style="fill:#5B5D6E;" d="M510.516,467.378l-51.482-77.224V48.551c0-4.875-3.953-8.828-8.828-8.828H61.793 c-4.875,0-8.828,3.953-8.828,8.828v341.603L1.483,467.378c-2.702,4.056-1.608,9.539,2.449,12.242 c4.056,2.698,9.535,1.599,12.242-2.449l36.792-55.189v50.293c0,4.875,3.953,8.828,8.828,8.828s8.828-3.953,8.828-8.828v-50.293 l36.793,55.19c1.703,2.551,4.5,3.931,7.353,3.931c1.681,0,3.383-0.479,4.888-1.483c4.056-2.702,5.151-8.185,2.449-12.242 L70.62,390.155V57.379h370.759v332.776l-51.482,77.224c-2.702,4.056-1.608,9.539,2.449,12.242c4.047,2.698,9.53,1.599,12.242-2.449 l36.792-55.189v50.293c0,4.875,3.953,8.828,8.828,8.828s8.828-3.953,8.828-8.828v-50.293l36.793,55.19 c1.703,2.551,4.5,3.931,7.353,3.931c1.681,0,3.383-0.479,4.888-1.483C512.124,476.918,513.219,471.435,510.516,467.378z"></path><g>	<path style="fill:#464655;" d="M70.62,366.344H52.965c-4.875,0-8.828-3.953-8.828-8.828v-17.655c0-4.875,3.953-8.828,8.828-8.828  H70.62V366.344z"></path>	<path style="fill:#464655;" d="M70.62,119.172H52.965c-4.875,0-8.828-3.953-8.828-8.828V92.689c0-4.875,3.953-8.828,8.828-8.828  H70.62V119.172z"></path>	<path style="fill:#464655;" d="M97.103,57.379V39.724c0-4.875,3.953-8.828,8.828-8.828h17.655c4.875,0,8.828,3.953,8.828,8.828  v17.655H97.103z"></path></g><rect x="388.413" y="48.551" style="fill:#74798D;" width="17.655" height="44.138"></rect><g>	<path style="fill:#464655;" d="M379.586,57.379V39.724c0-4.875,3.953-8.828,8.828-8.828h17.655c4.875,0,8.828,3.953,8.828,8.828  v17.655H379.586z"></path>	<path style="fill:#464655;" d="M441.379,83.862h17.655c4.875,0,8.828,3.953,8.828,8.828v17.655c0,4.875-3.953,8.828-8.828,8.828  h-17.655V83.862z"></path>	<path style="fill:#464655;" d="M441.379,331.034h17.655c4.875,0,8.828,3.953,8.828,8.828v17.655c0,4.875-3.953,8.828-8.828,8.828  h-17.655V331.034z"></path>	<path style="fill:#464655;" d="M79.448,57.379H52.965c-4.875,0-8.828-3.953-8.828-8.828v-8.828c0-4.875,3.953-8.828,8.828-8.828  H70.62c4.875,0,8.828,3.953,8.828,8.828V57.379z"></path>	<path style="fill:#464655;" d="M441.379,57.379h26.483c4.875,0,8.828-3.953,8.828-8.828v-8.828c0-4.875-3.953-8.828-8.828-8.828  h-17.655c-4.875,0-8.828,3.953-8.828,8.828V57.379z"></path></g><path style="fill:#D7DEED;" d="M414.896,75.034H97.103c-4.875,0-8.828,3.953-8.828,8.828v308.966c0,4.875,3.953,8.828,8.828,8.828 h317.793c4.875,0,8.828-3.953,8.828-8.828V83.862C423.724,78.987,419.771,75.034,414.896,75.034z"></path></svg>